<svg width="14" height="14" viewBox="0 0 14 14" fill="none" xmlns="http://www.w3.org/2000/svg">
<path fill-rule="evenodd" clip-rule="evenodd" d="M2.55271 2.55272C2.08277 2.55272 1.7018 2.93369 1.7018 3.40363V11.0618C1.7018 11.5318 2.08277 11.9127 2.55271 11.9127H11.0618C11.5317 11.9127 11.9127 11.5318 11.9127 11.0618V3.40363C11.9127 2.93369 11.5317 2.55272 11.0618 2.55272H2.55271ZM0.850891 3.40363C0.850891 2.46374 1.61282 1.70181 2.55271 1.70181H11.0618C12.0017 1.70181 12.7636 2.46374 12.7636 3.40363V11.0618C12.7636 12.0017 12.0017 12.7636 11.0618 12.7636H2.55271C1.61282 12.7636 0.850891 12.0017 0.850891 11.0618V3.40363Z" fill="#2E42B2"/>
<path d="M7.87091 6.80728C8.22337 6.80728 8.50909 6.52155 8.50909 6.1691C8.50909 5.81664 8.22337 5.53091 7.87091 5.53091C7.51845 5.53091 7.23273 5.81664 7.23273 6.1691C7.23273 6.52155 7.51845 6.80728 7.87091 6.80728Z" fill="#2E42B2"/>
<path d="M9.99817 6.80728C10.3506 6.80728 10.6363 6.52155 10.6363 6.1691C10.6363 5.81664 10.3506 5.53091 9.99817 5.53091C9.64571 5.53091 9.35999 5.81664 9.35999 6.1691C9.35999 6.52155 9.64571 6.80728 9.99817 6.80728Z" fill="#2E42B2"/>
<path d="M7.87091 8.93454C8.22337 8.93454 8.50909 8.64881 8.50909 8.29635C8.50909 7.9439 8.22337 7.65817 7.87091 7.65817C7.51845 7.65817 7.23273 7.9439 7.23273 8.29635C7.23273 8.64881 7.51845 8.93454 7.87091 8.93454Z" fill="#2E42B2"/>
<path d="M9.99817 8.93454C10.3506 8.93454 10.6363 8.64881 10.6363 8.29635C10.6363 7.9439 10.3506 7.65817 9.99817 7.65817C9.64571 7.65817 9.35999 7.9439 9.35999 8.29635C9.35999 8.64881 9.64571 8.93454 9.99817 8.93454Z" fill="#2E42B2"/>
<path d="M3.61639 8.93454C3.96885 8.93454 4.25457 8.64881 4.25457 8.29635C4.25457 7.9439 3.96885 7.65817 3.61639 7.65817C3.26393 7.65817 2.97821 7.9439 2.97821 8.29635C2.97821 8.64881 3.26393 8.93454 3.61639 8.93454Z" fill="#2E42B2"/>
<path d="M5.74365 8.93454C6.09611 8.93454 6.38183 8.64881 6.38183 8.29635C6.38183 7.9439 6.09611 7.65817 5.74365 7.65817C5.39119 7.65817 5.10547 7.9439 5.10547 8.29635C5.10547 8.64881 5.39119 8.93454 5.74365 8.93454Z" fill="#2E42B2"/>
<path d="M3.61639 11.0618C3.96885 11.0618 4.25457 10.7761 4.25457 10.4236C4.25457 10.0712 3.96885 9.78546 3.61639 9.78546C3.26393 9.78546 2.97821 10.0712 2.97821 10.4236C2.97821 10.7761 3.26393 11.0618 3.61639 11.0618Z" fill="#2E42B2"/>
<path d="M5.74365 11.0618C6.09611 11.0618 6.38183 10.7761 6.38183 10.4236C6.38183 10.0712 6.09611 9.78546 5.74365 9.78546C5.39119 9.78546 5.10547 10.0712 5.10547 10.4236C5.10547 10.7761 5.39119 11.0618 5.74365 11.0618Z" fill="#2E42B2"/>
<path d="M7.87091 11.0618C8.22337 11.0618 8.50909 10.7761 8.50909 10.4236C8.50909 10.0712 8.22337 9.78546 7.87091 9.78546C7.51845 9.78546 7.23273 10.0712 7.23273 10.4236C7.23273 10.7761 7.51845 11.0618 7.87091 11.0618Z" fill="#2E42B2"/>
<path fill-rule="evenodd" clip-rule="evenodd" d="M3.40367 0.850922C3.63864 0.850922 3.82912 1.0414 3.82912 1.27638V2.12729C3.82912 2.36226 3.63864 2.55274 3.40367 2.55274C3.16869 2.55274 2.97821 2.36226 2.97821 2.12729V1.27638C2.97821 1.0414 3.16869 0.850922 3.40367 0.850922Z" fill="#2E42B2"/>
<path fill-rule="evenodd" clip-rule="evenodd" d="M10.2109 0.850922C10.4459 0.850922 10.6364 1.0414 10.6364 1.27638V2.12729C10.6364 2.36226 10.4459 2.55274 10.2109 2.55274C9.97594 2.55274 9.78546 2.36226 9.78546 2.12729V1.27638C9.78546 1.0414 9.97594 0.850922 10.2109 0.850922Z" fill="#2E42B2"/>
<path fill-rule="evenodd" clip-rule="evenodd" d="M1.27637 3.8291H12.3382V4.68001H1.27637V3.8291Z" fill="#2E42B2"/>
</svg>
