<svg width="150" height="150" viewBox="0 0 150 150" fill="none" xmlns="http://www.w3.org/2000/svg">
<path d="M110.156 128.906H30.4687L25.7812 57.7032C25.7488 57.212 25.8185 56.7195 25.9859 56.2566C26.1533 55.7938 26.4149 55.3706 26.754 55.0139C27.0931 54.6571 27.5025 54.3745 27.9563 54.1839C28.4101 53.9933 28.8985 53.8988 29.3906 53.9063H46.875C47.6828 53.9027 48.4803 54.0871 49.2044 54.4451C49.9285 54.8031 50.5593 55.3248 51.0469 55.9688L56.7656 63.2813H110.156V72.6563" stroke="#2E42B2" stroke-width="4" stroke-linecap="round" stroke-linejoin="round"/>
<path d="M123.281 97.0313L127.219 82.0312H43.3594L30.4688 128.906H109.734C111.203 128.903 112.629 128.413 113.791 127.514C114.952 126.616 115.784 125.358 116.156 123.938L119.719 110.437" stroke="#2E42B2" stroke-width="4" stroke-linecap="round" stroke-linejoin="round"/>
<path d="M77.3438 114.844C78.5904 113.607 80.2753 112.913 82.0312 112.913C83.7872 112.913 85.4721 113.607 86.7188 114.844" stroke="#2E42B2" stroke-width="4" stroke-linecap="round" stroke-linejoin="round"/>
<path d="M63.2812 100.781H67.9688" stroke="#2E42B2" stroke-width="4" stroke-linecap="round" stroke-linejoin="round"/>
<path d="M96.0938 100.781H100.781" stroke="#2E42B2" stroke-width="4" stroke-linecap="round" stroke-linejoin="round"/>
<path d="M96.6563 16.9219C85.5469 18.75 77.3438 25.1719 77.3438 32.8125C77.4175 35.7825 78.5861 38.6205 80.625 40.7813L77.3438 53.9063L90.75 47.2031C94.7352 48.5545 98.9169 49.2356 103.125 49.2188C117.188 49.2188 128.906 41.8594 128.906 32.8125C128.906 25.3125 120.984 18.9844 110.156 17.0156" stroke="#2E42B2" stroke-width="4" stroke-linecap="round" stroke-linejoin="round"/>
<path d="M99.6094 29.2969L106.641 36.3281" stroke="#2E42B2" stroke-width="4" stroke-linecap="round" stroke-linejoin="round"/>
<path d="M106.641 29.2969L99.6094 36.3281" stroke="#2E42B2" stroke-width="4" stroke-linecap="round" stroke-linejoin="round"/>
</svg>
