<svg width="14" height="14" viewBox="0 0 14 14" fill="none" xmlns="http://www.w3.org/2000/svg">
<path d="M6.75839 0.844788C4.42648 0.844788 2.53439 2.54785 2.53439 4.64639C2.53439 8.02559 6.75839 12.672 6.75839 12.672C6.75839 12.672 10.9824 8.02559 10.9824 4.64639C10.9824 2.54785 9.09031 0.844788 6.75839 0.844788ZM6.75839 6.75839C6.42422 6.75839 6.09756 6.65929 5.8197 6.47364C5.54185 6.28798 5.32529 6.0241 5.19741 5.71537C5.06952 5.40664 5.03607 5.06691 5.10126 4.73916C5.16645 4.41141 5.32737 4.11035 5.56367 3.87406C5.79996 3.63777 6.10102 3.47685 6.42877 3.41165C6.75652 3.34646 7.09624 3.37992 7.40498 3.5078C7.71371 3.63568 7.97759 3.85224 8.16325 4.1301C8.3489 4.40795 8.44799 4.73462 8.44799 5.06879C8.4475 5.51675 8.26934 5.94622 7.95258 6.26298C7.63583 6.57973 7.20635 6.7579 6.75839 6.75839Z" fill="#2E42B2"/>
</svg>
